<svg width="244" height="267" viewBox="0 0 244 267" fill="none" xmlns="http://www.w3.org/2000/svg">
<g filter="url(#filter0_d_71_6)">
<ellipse cx="89.1731" cy="93.9086" rx="89.1731" ry="93.9086" transform="matrix(0.905043 0.442392 -0.372744 0.920709 76.0289 7.3042)" fill="#FFDB66"/>
</g>
<path d="M99.4598 130.212C98.7211 132.883 97.2981 134.816 95.1909 136.011C93.0837 137.205 90.9061 137.419 88.658 136.652C86.4413 135.896 84.7313 134.234 83.528 131.666L82.7893 134.337L79.1363 133.09L85.9824 108.337L89.6354 109.584L86.8389 119.695C88.9307 117.938 91.1319 117.454 93.4423 118.242C95.8464 119.062 97.6272 120.592 98.7847 122.831C99.9734 125.081 100.198 127.541 99.4598 130.212ZM88.7384 133.026C90.2371 133.537 91.6511 133.428 92.9804 132.699C94.3497 131.948 95.2675 130.73 95.7335 129.045C96.1996 127.36 96.0558 125.78 95.302 124.305C94.5794 122.84 93.4844 121.858 92.017 121.357C90.5495 120.856 89.158 121.008 87.8423 121.812C86.5354 122.584 85.6533 123.796 85.196 125.45C84.7299 127.135 84.8426 128.704 85.5339 130.158C86.234 131.58 87.3022 132.536 88.7384 133.026ZM115.499 126.081L119.199 127.343L114.292 145.085L110.592 143.823L111.489 140.58C110.596 141.458 109.532 142.035 108.294 142.308C107.088 142.593 105.892 142.532 104.705 142.128C102.707 141.446 101.286 140.283 100.443 138.638C99.5992 136.993 99.494 135.026 100.127 132.736L103.135 121.862L106.788 123.109L104.097 132.838C103.191 136.113 104.065 138.203 106.719 139.109C108.062 139.567 109.309 139.505 110.46 138.924C111.612 138.343 112.408 137.257 112.847 135.667L115.499 126.081ZM133.934 132.371L137.634 133.633L132.727 151.376L129.028 150.113L129.924 146.87C129.032 147.749 127.967 148.325 126.73 148.599C125.524 148.883 124.327 148.823 123.141 148.418C121.143 147.736 119.722 146.573 118.878 144.928C118.035 143.283 117.93 141.316 118.563 139.027L121.57 128.152L125.223 129.399L122.533 139.128C121.627 142.403 122.501 144.494 125.155 145.399C126.497 145.857 127.744 145.796 128.896 145.214C130.048 144.633 130.843 143.547 131.283 141.958L133.934 132.371ZM136.642 142.899C137.381 140.228 138.811 138.332 140.932 137.212C143.053 136.091 145.315 135.941 147.719 136.761C150.03 137.55 151.61 139.185 152.461 141.668L155.152 131.938L158.852 133.2L152.006 157.954L148.306 156.691L149.045 154.02C147.188 155.544 144.949 155.859 142.326 154.964C140.047 154.186 138.333 152.662 137.184 150.391C136.076 148.099 135.895 145.602 136.642 142.899ZM144.046 151.897C145.513 152.398 146.896 152.278 148.194 151.538C149.492 150.798 150.374 149.585 150.84 147.9C151.298 146.246 151.169 144.672 150.456 143.175C149.773 141.69 148.698 140.697 147.231 140.196C145.763 139.695 144.34 139.836 142.962 140.619C141.624 141.38 140.722 142.603 140.256 144.288C139.79 145.974 139.938 147.538 140.701 148.981C141.463 150.424 142.578 151.396 144.046 151.897ZM158.218 160.073L154.565 158.827L161.411 134.074L165.064 135.32L158.218 160.073Z" fill="#56160A"/>
<defs>
<filter id="filter0_d_71_6" x="23.7386" y="32.156" width="195.984" height="210.12" filterUnits="userSpaceOnUse" color-interpolation-filters="sRGB">
<feFlood flood-opacity="0" result="BackgroundImageFix"/>
<feColorMatrix in="SourceAlpha" type="matrix" values="0 0 0 0 0 0 0 0 0 0 0 0 0 0 0 0 0 0 127 0" result="hardAlpha"/>
<feOffset dy="4"/>
<feGaussianBlur stdDeviation="5"/>
<feComposite in2="hardAlpha" operator="out"/>
<feColorMatrix type="matrix" values="0 0 0 0 0 0 0 0 0 0 0 0 0 0 0 0 0 0 0.25 0"/>
<feBlend mode="normal" in2="BackgroundImageFix" result="effect1_dropShadow_71_6"/>
<feBlend mode="normal" in="SourceGraphic" in2="effect1_dropShadow_71_6" result="shape"/>
</filter>
</defs>
</svg>
