<svg width="238" height="220" viewBox="0 0 238 220" fill="none" xmlns="http://www.w3.org/2000/svg">
<g filter="url(#filter0_d_1_327)">
<ellipse cx="77.8717" cy="78.8032" rx="77.8717" ry="78.8032" transform="matrix(0.979269 -0.202563 0.179576 0.983744 9.43356 18.7517)" fill="#FB9EBB"/>
</g>
<path d="M71.8097 93.5032C72.9013 97.0331 72.7208 100.319 71.2684 103.362C69.8159 106.405 67.5893 108.432 64.5886 109.445C61.6296 110.444 58.5803 110.034 55.4407 108.217L56.5323 111.747L51.6561 113.392L41.5393 80.6775L46.4155 79.0318L50.548 92.3951C51.5841 88.7503 53.6442 86.4076 56.7283 85.3667C59.9374 84.2836 62.9699 84.49 65.8259 85.9858C68.7235 87.4675 70.7181 89.9733 71.8097 93.5032ZM62.0989 105.413C64.0993 104.737 65.5663 103.453 66.4998 101.56C67.462 99.6114 67.5987 97.5233 66.91 95.2961C66.2212 93.0689 64.9409 91.459 63.0691 90.4664C61.2389 89.4598 59.3444 89.287 57.3856 89.9481C55.4268 90.6092 54.0145 91.9212 53.1487 93.8842C52.2699 95.8051 52.1683 97.8581 52.8441 100.043C53.5328 102.27 54.7714 103.894 56.5599 104.915C58.3354 105.894 60.1817 106.06 62.0989 105.413ZM86.3926 75.7728L91.3313 74.106L98.5826 97.5547L93.6439 99.2215L92.3184 94.9351C91.9684 96.6312 91.2148 98.1385 90.0577 99.4572C88.9423 100.762 87.5927 101.681 86.009 102.216C83.3417 103.116 80.9628 103.014 78.8723 101.91C76.7817 100.805 75.2686 98.7402 74.333 95.7146L69.8886 81.3428L74.7648 79.6971L78.7413 92.5561C80.0798 96.8844 82.5203 98.4508 86.0629 97.2552C87.855 96.6504 89.1734 95.5557 90.0181 93.9712C90.8629 92.3866 90.9604 90.5438 90.3106 88.4426L86.3926 75.7728ZM111.001 67.4674L115.94 65.8006L123.191 89.2493L118.253 90.9161L116.927 86.6298C116.577 88.3258 115.824 89.8331 114.666 91.1518C113.551 92.4565 112.201 93.376 110.618 93.9105C107.95 94.8107 105.572 94.7086 103.481 93.6042C101.39 92.4999 99.8774 90.4348 98.9417 87.4092L94.4974 73.0374L99.3736 71.3917L103.35 84.2507C104.689 88.579 107.129 90.1454 110.672 88.9498C112.464 88.345 113.782 87.2503 114.627 85.6658C115.472 84.0812 115.569 82.2384 114.919 80.1372L111.001 67.4674ZM121.443 76.7523C120.351 73.2224 120.565 69.9711 122.085 66.9984C123.605 64.0257 125.97 61.9978 129.179 60.9147C132.263 59.8739 135.152 60.3607 137.846 62.3751L133.87 49.5162L138.809 47.8494L148.925 80.5641L143.987 82.2309L142.895 78.701C141.95 81.8972 139.728 84.086 136.227 85.2675C133.184 86.2943 130.229 86.0388 127.36 84.501C124.52 82.9071 122.547 80.3242 121.443 76.7523ZM135.925 80.4965C137.884 79.8354 139.309 78.5654 140.201 76.6865C141.093 74.8076 141.194 72.7546 140.506 70.5274C139.83 68.3422 138.57 66.7253 136.727 65.6766C134.926 64.6139 133.046 64.4131 131.087 65.0742C129.128 65.7353 127.674 67.0614 126.725 69.0524C125.804 70.9874 125.688 73.0685 126.377 75.2957C127.066 77.5229 128.34 79.1118 130.199 80.0623C132.057 81.0128 133.966 81.1576 135.925 80.4965ZM157.218 77.7655L152.341 79.4112L142.225 46.6965L147.101 45.0508L157.218 77.7655Z" fill="#56160A"/>
<defs>
<filter id="filter0_d_1_327" x="12.269" y="-4.62622" width="175.146" height="178.252" filterUnits="userSpaceOnUse" color-interpolation-filters="sRGB">
<feFlood flood-opacity="0" result="BackgroundImageFix"/>
<feColorMatrix in="SourceAlpha" type="matrix" values="0 0 0 0 0 0 0 0 0 0 0 0 0 0 0 0 0 0 127 0" result="hardAlpha"/>
<feOffset dy="4"/>
<feGaussianBlur stdDeviation="5"/>
<feComposite in2="hardAlpha" operator="out"/>
<feColorMatrix type="matrix" values="0 0 0 0 0 0 0 0 0 0 0 0 0 0 0 0 0 0 0.25 0"/>
<feBlend mode="normal" in2="BackgroundImageFix" result="effect1_dropShadow_1_327"/>
<feBlend mode="normal" in="SourceGraphic" in2="effect1_dropShadow_1_327" result="shape"/>
</filter>
</defs>
</svg>
