<svg width="113" height="36" viewBox="0 0 113 36" fill="none" xmlns="http://www.w3.org/2000/svg">
<mask id="path-1-outside-1_1_332" maskUnits="userSpaceOnUse" x="0" y="0" width="113" height="36" fill="black">
<rect fill="white" width="113" height="36"/>
<path d="M25.9227 22.5959C25.9227 26.2907 24.7791 29.3478 22.4918 31.767C20.2045 34.1863 17.4774 35.3959 14.3103 35.3959C11.1873 35.3959 8.3942 34.0323 5.93097 31.3052V35H0.784575V0.756699H5.93097V14.7443C7.99832 11.6213 10.6595 10.0598 13.9145 10.0598C17.3014 10.0598 20.1385 11.2254 22.4258 13.5567C24.7571 15.888 25.9227 18.901 25.9227 22.5959ZM13.1227 30.7773C15.2341 30.7773 17.0155 30.0296 18.4671 28.534C19.9626 26.9945 20.7104 25.0591 20.7104 22.7278C20.7104 20.3966 19.9626 18.4612 18.4671 16.9216C17.0155 15.3821 15.2561 14.6124 13.1887 14.6124C11.1213 14.6124 9.38389 15.4041 7.97633 16.9876C6.56877 18.5271 5.86499 20.4405 5.86499 22.7278C5.86499 25.0591 6.56877 26.9945 7.97633 28.534C9.38389 30.0296 11.0994 30.7773 13.1227 30.7773ZM45.0992 10.4557H50.3116V35H45.0992V30.5134C44.2635 32.0089 43.0978 33.1966 41.6023 34.0763C40.1508 34.956 38.5892 35.3959 36.9178 35.3959C34.1026 35.3959 31.8593 34.5381 30.1879 32.8227C28.5164 31.1072 27.6807 28.666 27.6807 25.499V10.4557H32.827V23.9155C32.827 28.446 34.6965 30.7113 38.4353 30.7113C40.3267 30.7113 41.9102 30.0955 43.1858 28.8639C44.4614 27.6323 45.0992 25.9168 45.0992 23.7175V10.4557ZM71.0717 10.4557H76.2841V35H71.0717V30.5134C70.236 32.0089 69.0703 33.1966 67.5748 34.0763C66.1233 34.956 64.5617 35.3959 62.8903 35.3959C60.0752 35.3959 57.8319 34.5381 56.1604 32.8227C54.4889 31.1072 53.6532 28.666 53.6532 25.499V10.4557H58.7995V23.9155C58.7995 28.446 60.669 30.7113 64.4078 30.7113C66.2992 30.7113 67.8827 30.0955 69.1583 28.8639C70.4339 27.6323 71.0717 25.9168 71.0717 23.7175V10.4557ZM78.3061 22.5959C78.3061 18.901 79.4717 15.888 81.803 13.5567C84.1343 11.2254 86.9934 10.0598 90.3803 10.0598C93.6353 10.0598 96.2525 11.4454 98.2318 14.2165V0.756699H103.444V35H98.2318V31.3052C96.3844 34.0323 93.6133 35.3959 89.9184 35.3959C86.7074 35.3959 83.9583 34.2082 81.671 31.833C79.4277 29.4137 78.3061 26.3347 78.3061 22.5959ZM91.0401 30.7773C93.1074 30.7773 94.8449 30.0296 96.2525 28.534C97.66 27.0385 98.3638 25.1251 98.3638 22.7938C98.3638 20.5065 97.638 18.5711 96.1865 16.9876C94.7789 15.4041 93.0415 14.6124 90.9741 14.6124C88.9068 14.6124 87.1253 15.4041 85.6298 16.9876C84.1782 18.5271 83.4525 20.4625 83.4525 22.7938C83.4525 25.1251 84.2002 27.0385 85.6958 28.534C87.1913 30.0296 88.9727 30.7773 91.0401 30.7773ZM112.196 35H107.05V0.756699H112.196V35Z"/>
</mask>
<path d="M25.9227 22.5959C25.9227 26.2907 24.7791 29.3478 22.4918 31.767C20.2045 34.1863 17.4774 35.3959 14.3103 35.3959C11.1873 35.3959 8.3942 34.0323 5.93097 31.3052V35H0.784575V0.756699H5.93097V14.7443C7.99832 11.6213 10.6595 10.0598 13.9145 10.0598C17.3014 10.0598 20.1385 11.2254 22.4258 13.5567C24.7571 15.888 25.9227 18.901 25.9227 22.5959ZM13.1227 30.7773C15.2341 30.7773 17.0155 30.0296 18.4671 28.534C19.9626 26.9945 20.7104 25.0591 20.7104 22.7278C20.7104 20.3966 19.9626 18.4612 18.4671 16.9216C17.0155 15.3821 15.2561 14.6124 13.1887 14.6124C11.1213 14.6124 9.38389 15.4041 7.97633 16.9876C6.56877 18.5271 5.86499 20.4405 5.86499 22.7278C5.86499 25.0591 6.56877 26.9945 7.97633 28.534C9.38389 30.0296 11.0994 30.7773 13.1227 30.7773ZM45.0992 10.4557H50.3116V35H45.0992V30.5134C44.2635 32.0089 43.0978 33.1966 41.6023 34.0763C40.1508 34.956 38.5892 35.3959 36.9178 35.3959C34.1026 35.3959 31.8593 34.5381 30.1879 32.8227C28.5164 31.1072 27.6807 28.666 27.6807 25.499V10.4557H32.827V23.9155C32.827 28.446 34.6965 30.7113 38.4353 30.7113C40.3267 30.7113 41.9102 30.0955 43.1858 28.8639C44.4614 27.6323 45.0992 25.9168 45.0992 23.7175V10.4557ZM71.0717 10.4557H76.2841V35H71.0717V30.5134C70.236 32.0089 69.0703 33.1966 67.5748 34.0763C66.1233 34.956 64.5617 35.3959 62.8903 35.3959C60.0752 35.3959 57.8319 34.5381 56.1604 32.8227C54.4889 31.1072 53.6532 28.666 53.6532 25.499V10.4557H58.7995V23.9155C58.7995 28.446 60.669 30.7113 64.4078 30.7113C66.2992 30.7113 67.8827 30.0955 69.1583 28.8639C70.4339 27.6323 71.0717 25.9168 71.0717 23.7175V10.4557ZM78.3061 22.5959C78.3061 18.901 79.4717 15.888 81.803 13.5567C84.1343 11.2254 86.9934 10.0598 90.3803 10.0598C93.6353 10.0598 96.2525 11.4454 98.2318 14.2165V0.756699H103.444V35H98.2318V31.3052C96.3844 34.0323 93.6133 35.3959 89.9184 35.3959C86.7074 35.3959 83.9583 34.2082 81.671 31.833C79.4277 29.4137 78.3061 26.3347 78.3061 22.5959ZM91.0401 30.7773C93.1074 30.7773 94.8449 30.0296 96.2525 28.534C97.66 27.0385 98.3638 25.1251 98.3638 22.7938C98.3638 20.5065 97.638 18.5711 96.1865 16.9876C94.7789 15.4041 93.0415 14.6124 90.9741 14.6124C88.9068 14.6124 87.1253 15.4041 85.6298 16.9876C84.1782 18.5271 83.4525 20.4625 83.4525 22.7938C83.4525 25.1251 84.2002 27.0385 85.6958 28.534C87.1913 30.0296 88.9727 30.7773 91.0401 30.7773ZM112.196 35H107.05V0.756699H112.196V35Z" fill="#EB3D00"/>
<path d="M22.4918 31.767L22.8551 32.1105L22.4918 31.767ZM5.93097 31.3052L6.30202 30.97L5.43097 30.0056V31.3052H5.93097ZM5.93097 35V35.5H6.43097V35H5.93097ZM0.784576 35H0.284576V35.5H0.784576V35ZM0.784576 0.756699V0.256699H0.284576V0.756699H0.784576ZM5.93097 0.756699H6.43097V0.256699H5.93097V0.756699ZM5.93097 14.7443H5.43097V16.4055L6.34789 15.0203L5.93097 14.7443ZM22.4258 13.5567L22.0689 13.9069L22.0723 13.9103L22.4258 13.5567ZM18.467 28.534L18.1084 28.1856L18.1083 28.1858L18.467 28.534ZM18.467 16.9216L18.1032 17.2647L18.1084 17.27L18.467 16.9216ZM7.97633 16.9876L8.34538 17.325L8.35003 17.3198L7.97633 16.9876ZM7.97633 28.534L7.60728 28.8714L7.61223 28.8767L7.97633 28.534ZM25.4227 22.5959C25.4227 26.1782 24.318 29.1076 22.1285 31.4235L22.8551 32.1105C25.2401 29.5879 26.4227 26.4032 26.4227 22.5959H25.4227ZM22.1285 31.4235C19.9302 33.7486 17.3322 34.8959 14.3103 34.8959V35.8959C17.6225 35.8959 20.4788 34.6239 22.8551 32.1105L22.1285 31.4235ZM14.3103 34.8959C11.354 34.8959 8.68879 33.6125 6.30202 30.97L5.55991 31.6403C8.09961 34.4521 11.0207 35.8959 14.3103 35.8959V34.8959ZM5.43097 31.3052V35H6.43097V31.3052H5.43097ZM5.93097 34.5H0.784576V35.5H5.93097V34.5ZM1.28458 35V0.756699H0.284576V35H1.28458ZM0.784576 1.2567H5.93097V0.256699H0.784576V1.2567ZM5.43097 0.756699V14.7443H6.43097V0.756699H5.43097ZM6.34789 15.0203C8.33891 12.0126 10.8547 10.5598 13.9145 10.5598V9.55979C10.4643 9.55979 7.65773 11.23 5.51404 14.4683L6.34789 15.0203ZM13.9145 10.5598C17.1727 10.5598 19.8795 11.6753 22.0689 13.9069L22.7827 13.2065C20.3976 10.7755 17.4301 9.55979 13.9145 9.55979V10.5598ZM22.0723 13.9103C24.2981 16.1361 25.4227 19.0161 25.4227 22.5959H26.4227C26.4227 18.7859 25.2161 15.6399 22.7794 13.2031L22.0723 13.9103ZM13.1227 31.2773C15.3673 31.2773 17.2788 30.4762 18.8258 28.8823L18.1083 28.1858C16.7523 29.5829 15.1009 30.2773 13.1227 30.2773V31.2773ZM18.8257 28.8824C20.4201 27.2411 21.2104 25.1769 21.2104 22.7278H20.2104C20.2104 24.9413 19.5051 26.7479 18.1084 28.1856L18.8257 28.8824ZM21.2104 22.7278C21.2104 20.2788 20.4201 18.2146 18.8257 16.5733L18.1084 17.27C19.5051 18.7078 20.2104 20.5144 20.2104 22.7278H21.2104ZM18.8308 16.5786C17.2873 14.9416 15.3974 14.1124 13.1887 14.1124V15.1124C15.1147 15.1124 16.7437 15.8227 18.1033 17.2647L18.8308 16.5786ZM13.1887 14.1124C10.9745 14.1124 9.10238 14.9682 7.60262 16.6554L8.35003 17.3198C9.6654 15.84 11.2682 15.1124 13.1887 15.1124V14.1124ZM7.60732 16.6502C6.10707 18.2911 5.36499 20.3287 5.36499 22.7278H6.36499C6.36499 20.5523 7.03046 18.7632 8.34534 17.325L7.60732 16.6502ZM5.36499 22.7278C5.36499 25.1681 6.10538 27.2287 7.60732 28.8714L8.34534 28.1966C7.03215 26.7603 6.36499 24.9501 6.36499 22.7278H5.36499ZM7.61223 28.8767C9.11267 30.4709 10.9592 31.2773 13.1227 31.2773V30.2773C11.2395 30.2773 9.65511 29.5882 8.34043 28.1913L7.61223 28.8767ZM45.0992 10.4557V9.95567H44.5992V10.4557H45.0992ZM50.3116 10.4557H50.8116V9.95567H50.3116V10.4557ZM50.3116 35V35.5H50.8116V35H50.3116ZM45.0992 35H44.5992V35.5H45.0992V35ZM45.0992 30.5134H45.5992V28.5937L44.6627 30.2695L45.0992 30.5134ZM41.6023 34.0763L41.3488 33.6453L41.3432 33.6487L41.6023 34.0763ZM30.1879 32.8227L30.546 32.4737L30.1879 32.8227ZM27.6807 10.4557V9.95567H27.1807V10.4557H27.6807ZM32.827 10.4557H33.327V9.95567H32.827V10.4557ZM43.1858 28.8639L42.8385 28.5042L43.1858 28.8639ZM45.0992 10.9557H50.3116V9.95567H45.0992V10.9557ZM49.8116 10.4557V35H50.8116V10.4557H49.8116ZM50.3116 34.5H45.0992V35.5H50.3116V34.5ZM45.5992 35V30.5134H44.5992V35H45.5992ZM44.6627 30.2695C43.8709 31.6865 42.7688 32.81 41.3488 33.6453L41.8558 34.5073C43.4268 33.5831 44.6561 32.3314 45.5357 30.7573L44.6627 30.2695ZM41.3432 33.6487C39.9685 34.4818 38.4964 34.8959 36.9178 34.8959V35.8959C38.6821 35.8959 40.333 35.4302 41.8615 34.5039L41.3432 33.6487ZM36.9178 34.8959C34.2119 34.8959 32.1069 34.0757 30.546 32.4737L29.8298 33.1716C31.6118 35.0006 33.9934 35.8959 36.9178 35.8959V34.8959ZM30.546 32.4737C28.9918 30.8787 28.1807 28.579 28.1807 25.499H27.1807C27.1807 28.753 28.041 31.3358 29.8298 33.1716L30.546 32.4737ZM28.1807 25.499V10.4557H27.1807V25.499H28.1807ZM27.6807 10.9557H32.827V9.95567H27.6807V10.9557ZM32.327 10.4557V23.9155H33.327V10.4557H32.327ZM32.327 23.9155C32.327 26.237 32.804 28.0711 33.8435 29.3306C34.8981 30.6086 36.4608 31.2113 38.4353 31.2113V30.2113C36.671 30.2113 35.4296 29.6815 34.6147 28.6941C33.7848 27.6884 33.327 26.1245 33.327 23.9155H32.327ZM38.4353 31.2113C40.4467 31.2113 42.1577 30.5516 43.5331 29.2236L42.8385 28.5042C41.6628 29.6394 40.2067 30.2113 38.4353 30.2113V31.2113ZM43.5331 29.2236C44.9287 27.8761 45.5992 26.0178 45.5992 23.7175H44.5992C44.5992 25.8159 43.9941 27.3885 42.8385 28.5042L43.5331 29.2236ZM45.5992 23.7175V10.4557H44.5992V23.7175H45.5992ZM71.0717 10.4557V9.95567H70.5717V10.4557H71.0717ZM76.2841 10.4557H76.7841V9.95567H76.2841V10.4557ZM76.2841 35V35.5H76.7841V35H76.2841ZM71.0717 35H70.5717V35.5H71.0717V35ZM71.0717 30.5134H71.5717V28.5937L70.6352 30.2695L71.0717 30.5134ZM67.5748 34.0763L67.3213 33.6453L67.3157 33.6487L67.5748 34.0763ZM56.1604 32.8227L56.5185 32.4737L56.1604 32.8227ZM53.6532 10.4557V9.95567H53.1532V10.4557H53.6532ZM58.7995 10.4557H59.2995V9.95567H58.7995V10.4557ZM69.1583 28.8639L68.811 28.5042L69.1583 28.8639ZM71.0717 10.9557H76.2841V9.95567H71.0717V10.9557ZM75.7841 10.4557V35H76.7841V10.4557H75.7841ZM76.2841 34.5H71.0717V35.5H76.2841V34.5ZM71.5717 35V30.5134H70.5717V35H71.5717ZM70.6352 30.2695C69.8434 31.6865 68.7413 32.81 67.3213 33.6453L67.8283 34.5073C69.3993 33.5831 70.6286 32.3314 71.5082 30.7573L70.6352 30.2695ZM67.3157 33.6487C65.941 34.4818 64.4689 34.8959 62.8903 34.8959V35.8959C64.6546 35.8959 66.3055 35.4302 67.834 34.5039L67.3157 33.6487ZM62.8903 34.8959C60.1844 34.8959 58.0794 34.0757 56.5185 32.4737L55.8023 33.1716C57.5843 35.0006 59.9659 35.8959 62.8903 35.8959V34.8959ZM56.5185 32.4737C54.9643 30.8787 54.1532 28.579 54.1532 25.499H53.1532C53.1532 28.753 54.0135 31.3358 55.8023 33.1716L56.5185 32.4737ZM54.1532 25.499V10.4557H53.1532V25.499H54.1532ZM53.6532 10.9557H58.7995V9.95567H53.6532V10.9557ZM58.2995 10.4557V23.9155H59.2995V10.4557H58.2995ZM58.2995 23.9155C58.2995 26.237 58.7765 28.0711 59.816 29.3306C60.8706 30.6086 62.4333 31.2113 64.4078 31.2113V30.2113C62.6435 30.2113 61.4021 29.6815 60.5872 28.6941C59.7573 27.6884 59.2995 26.1245 59.2995 23.9155H58.2995ZM64.4078 31.2113C66.4193 31.2113 68.1302 30.5516 69.5056 29.2236L68.811 28.5042C67.6353 29.6394 66.1792 30.2113 64.4078 30.2113V31.2113ZM69.5056 29.2236C70.9012 27.8761 71.5717 26.0178 71.5717 23.7175H70.5717C70.5717 25.8159 69.9666 27.3885 68.811 28.5042L69.5056 29.2236ZM71.5717 23.7175V10.4557H70.5717V23.7175H71.5717ZM81.803 13.5567L81.4494 13.2031L81.803 13.5567ZM98.2318 14.2165L97.825 14.5071L98.7318 15.7767V14.2165H98.2318ZM98.2318 0.756699V0.256699H97.7318V0.756699H98.2318ZM103.444 0.756699H103.944V0.256699H103.444V0.756699ZM103.444 35V35.5H103.944V35H103.444ZM98.2318 35H97.7318V35.5H98.2318V35ZM98.2318 31.3052H98.7318V29.6756L97.8179 31.0247L98.2318 31.3052ZM81.671 31.833L81.3043 32.173L81.3109 32.1798L81.671 31.833ZM96.2525 28.534L96.6166 28.8767L96.2525 28.534ZM96.1865 16.9876L95.8127 17.3198L95.8179 17.3255L96.1865 16.9876ZM85.6298 16.9876L85.2663 16.6443L85.266 16.6446L85.6298 16.9876ZM85.6958 28.534L86.0493 28.1805L85.6958 28.534ZM78.8061 22.5959C78.8061 19.0161 79.9307 16.1361 82.1565 13.9103L81.4494 13.2031C79.0127 15.6399 77.8061 18.7859 77.8061 22.5959H78.8061ZM82.1565 13.9103C84.3912 11.6756 87.1219 10.5598 90.3803 10.5598V9.55979C86.8648 9.55979 83.8773 10.7753 81.4494 13.2031L82.1565 13.9103ZM90.3803 10.5598C93.4652 10.5598 95.9343 11.8602 97.825 14.5071L98.6387 13.9259C96.5706 11.0305 93.8054 9.55979 90.3803 9.55979V10.5598ZM98.7318 14.2165V0.756699H97.7318V14.2165H98.7318ZM98.2318 1.2567H103.444V0.256699H98.2318V1.2567ZM102.944 0.756699V35H103.944V0.756699H102.944ZM103.444 34.5H98.2318V35.5H103.444V34.5ZM98.7318 35V31.3052H97.7318V35H98.7318ZM97.8179 31.0247C96.076 33.5961 93.471 34.8959 89.9184 34.8959V35.8959C93.7556 35.8959 96.6929 34.4685 98.6458 31.5856L97.8179 31.0247ZM89.9184 34.8959C86.8474 34.8959 84.2271 33.7665 82.0312 31.4862L81.3109 32.1798C83.6895 34.65 86.5675 35.8959 89.9184 35.8959V34.8959ZM82.0377 31.493C79.8916 29.1787 78.8061 26.2267 78.8061 22.5959H77.8061C77.8061 26.4427 78.9638 29.6488 81.3044 32.173L82.0377 31.493ZM91.0401 31.2773C93.2443 31.2773 95.1138 30.4734 96.6166 28.8767L95.8884 28.1913C94.576 29.5857 92.9706 30.2773 91.0401 30.2773V31.2773ZM96.6166 28.8767C98.1234 27.2757 98.8638 25.2339 98.8638 22.7938H97.8638C97.8638 25.0163 97.1967 26.8012 95.8884 28.1913L96.6166 28.8767ZM98.8638 22.7938C98.8638 20.3903 98.0969 18.3318 96.5551 16.6498L95.8179 17.3255C97.1791 18.8104 97.8638 20.6228 97.8638 22.7938H98.8638ZM96.5602 16.6554C95.0604 14.9682 93.1883 14.1124 90.9741 14.1124V15.1124C92.8947 15.1124 94.4974 15.84 95.8128 17.3198L96.5602 16.6554ZM90.9741 14.1124C88.7611 14.1124 86.8506 14.9668 85.2663 16.6443L85.9933 17.3309C87.4 15.8414 89.0524 15.1124 90.9741 15.1124V14.1124ZM85.266 16.6446C83.7177 18.2867 82.9525 20.3491 82.9525 22.7938H83.9525C83.9525 20.5759 84.6387 18.7676 85.9936 17.3306L85.266 16.6446ZM82.9525 22.7938C82.9525 25.2428 83.7429 27.2882 85.3422 28.8876L86.0493 28.1805C84.6576 26.7887 83.9525 25.0074 83.9525 22.7938H82.9525ZM85.3422 28.8876C86.9291 30.4745 88.8367 31.2773 91.0401 31.2773V30.2773C89.1087 30.2773 87.4535 29.5847 86.0493 28.1805L85.3422 28.8876ZM112.196 35V35.5H112.696V35H112.196ZM107.05 35H106.55V35.5H107.05V35ZM107.05 0.756699V0.256699H106.55V0.756699H107.05ZM112.196 0.756699H112.696V0.256699H112.196V0.756699ZM112.196 34.5H107.05V35.5H112.196V34.5ZM107.55 35V0.756699H106.55V35H107.55ZM107.05 1.2567H112.196V0.256699H107.05V1.2567ZM111.696 0.756699V35H112.696V0.756699H111.696Z" fill="#EB3D00" mask="url(#path-1-outside-1_1_332)"/>
</svg>
