<svg width="186" height="162" viewBox="0 0 186 162" fill="none" xmlns="http://www.w3.org/2000/svg">
<g filter="url(#filter0_d_1_214)">
<path d="M53.4506 165.244C58.5347 167.959 64.0943 168.95 69.3712 168.408C77.3125 167.592 84.5971 163.304 88.6023 156.24C88.6145 156.224 88.6259 156.208 88.6364 156.192C88.6461 156.175 88.6559 156.159 88.6649 156.142L88.6785 156.116C88.6882 156.099 88.697 156.082 88.706 156.065L102.823 130.716L124.403 152.397C124.424 152.42 124.445 152.438 124.466 152.458C124.476 152.468 124.486 152.477 124.496 152.488C134.644 162.595 151.181 163.351 161.408 154.162C171.648 144.972 171.765 129.224 161.707 119.021L161.684 118.995C161.665 118.974 161.65 118.957 161.628 118.941L140.085 97.2435L167.512 85.2791C180.395 79.6592 185.62 64.8741 179.148 52.336C172.677 39.7986 156.928 34.1607 144.03 39.7696L116.598 51.6972L111.968 22.6055C109.787 8.9467 96.421 -0.979997 82.1686 0.484732C67.9161 1.94946 58.0794 14.2607 60.2363 27.9346L64.8234 57.0056L34.5466 51.0086C34.5352 51.0098 34.5209 51.0088 34.5063 51.0065C34.4874 51.0037 34.4676 50.9986 34.452 50.9932C20.2497 48.2198 6.81973 56.8564 4.48012 70.2748C2.14031 83.6926 11.7553 96.9022 25.9215 99.78C25.9346 99.7824 25.9464 99.7856 25.9579 99.7889L26.0082 99.8015L26.031 99.8065L56.3006 105.841L42.2249 131.2C42.2204 131.213 42.2128 131.226 42.2051 131.239C42.1973 131.253 42.1896 131.266 42.1851 131.279C35.6235 143.191 40.6692 158.42 53.4506 165.244Z" fill="#CCCE6D"/>
</g>
<defs>
<filter id="filter0_d_1_214" x="0.129395" y="0.341309" width="185.797" height="176.21" filterUnits="userSpaceOnUse" color-interpolation-filters="sRGB">
<feFlood flood-opacity="0" result="BackgroundImageFix"/>
<feColorMatrix in="SourceAlpha" type="matrix" values="0 0 0 0 0 0 0 0 0 0 0 0 0 0 0 0 0 0 127 0" result="hardAlpha"/>
<feOffset dy="4"/>
<feGaussianBlur stdDeviation="2"/>
<feComposite in2="hardAlpha" operator="out"/>
<feColorMatrix type="matrix" values="0 0 0 0 0 0 0 0 0 0 0 0 0 0 0 0 0 0 0.25 0"/>
<feBlend mode="normal" in2="BackgroundImageFix" result="effect1_dropShadow_1_214"/>
<feBlend mode="normal" in="SourceGraphic" in2="effect1_dropShadow_1_214" result="shape"/>
</filter>
</defs>
</svg>
