<svg width="175" height="195" viewBox="0 0 175 195" fill="none" xmlns="http://www.w3.org/2000/svg">
<path d="M51.1248 4.22536C50.3457 1.02657 54.3342 -0.755227 55.7662 2.15191L67.7766 26.5412C83.2852 58.0344 116.203 73.6215 147.398 64.2441L171.557 56.9819C174.438 56.1164 176.042 60.5464 173.424 62.1371L151.466 75.4771C123.112 92.7026 109.079 129.264 117.521 163.914L124.06 190.748C124.839 193.947 120.85 195.728 119.418 192.821L107.408 168.432C91.8995 136.939 58.9821 121.352 27.7861 130.729L3.62694 137.991C0.746991 138.857 -0.857206 134.427 1.76016 132.836L23.7185 119.496C52.0726 102.271 66.106 65.709 57.6632 31.0592L51.1248 4.22536Z" fill="#CBB3F8"/>
</svg>
